/vscmnt/brussel_pixiu_data/_data_brussel/112/vsc11236/PredSimResults/SUBJ06opt3D/trackIG/worker_04.mot
version=1
nRows=11
nColumns=50
inDegrees=yes
endheader
                time	         pelvis_tilt	         pelvis_list	     pelvis_rotation	           pelvis_tx	           pelvis_ty	           pelvis_tz	       hip_flexion_r	     hip_adduction_r	      hip_rotation_r	        knee_angle_r	       ankle_angle_r	         mtp_angle_r	       hip_flexion_l	     hip_adduction_l	      hip_rotation_l	        knee_angle_l	       ankle_angle_l	         mtp_angle_l	    lumbar_extension	      lumbar_bending	     lumbar_rotation	 ercspn_r/activation	 intobl_r/activation	 extobl_r/activation	    abd_r/activation	    add_r/activation	hamstrings_r/activation	bifemsh_r/activation	glut_max_r/activation	iliopsoas_r/activation	rect_fem_r/activation	  vasti_r/activation	gastroc_r/activation	 soleus_r/activation	tib_ant_r/activation	 ercspn_l/activation	 intobl_l/activation	 extobl_l/activation	    abd_l/activation	    add_l/activation	hamstrings_l/activation	bifemsh_l/activation	glut_max_l/activation	iliopsoas_l/activation	rect_fem_l/activation	  vasti_l/activation	gastroc_l/activation	 soleus_l/activation	tib_ant_l/activation	
          0.68358702	         -2.52672188	          3.39347683	         -6.74717081	          0.61522831	          0.94488725	          0.01493523	        -10.86234308	         -4.66961575	         -9.79249239	        -12.17727292	          9.01355033	         30.47237180	         25.06168558	          0.72304551	        -12.41345588	         -7.54836857	         -1.77880804	          0.21143538	         -5.68962822	         -1.72657010	          7.25581596	          0.09479201	          0.00999999	          0.00999999	          0.08321972	          0.00999999	          0.00999999	          0.17190014	          0.01776060	          0.15366098	          0.02790924	          0.00999999	          0.20128546	          0.32778039	          0.01693638	          0.19147809	          0.20078941	          0.00999999	          0.00999999	          0.26078572	          0.02686784	          0.00999999	          0.01097279	          0.12005586	          0.01851180	          0.11202387	          0.00999999	          0.00999999	          0.48551962	
          0.69725876	         -2.60514826	          3.30387130	         -6.67561454	          0.63094186	          0.94338433	          0.01367756	        -11.36208501	         -4.79300976	        -10.35032276	        -12.85945078	          8.13920177	         32.10174558	         24.55620613	          0.82980272	        -12.31274032	         -7.95384636	         -2.21359316	          0.19809687	         -5.29631719	         -2.03590336	          7.65988544	          0.09922294	          0.00999999	          0.00999999	          0.06777610	          0.00999999	          0.00999999	          0.13999952	          0.01507644	          0.12514512	          0.02272994	          0.00999999	          0.17840959	          0.30936708	          0.01379339	          0.16404914	          0.18179172	          0.00999999	          0.00999999	          0.21239003	          0.02556792	          0.00999999	          0.00999999	          0.09777632	          0.01507644	          0.12224378	          0.01507644	          0.01507644	          0.49098341	
          0.71093050	         -2.66914732	          3.23060655	         -6.56390918	          0.64702149	          0.94212219	          0.01236213	        -11.76917070	         -4.95866687	        -10.90551428	        -13.76455404	          7.12067878	         33.75686634	         23.88146711	          0.93812030	        -12.26323718	         -8.35787558	         -2.47615573	          0.18581234	         -4.88298254	         -2.38895845	          8.02198386	          0.10519184	          0.00999999	          0.00999999	          0.05519845	          0.00999999	          0.00999999	          0.14300732	          0.01227861	          0.17406340	          0.01851180	          0.00999999	          0.14530097	          0.28332379	          0.01123366	          0.13360548	          0.14805546	          0.00999999	          0.02172548	          0.17297544	          0.05033821	          0.01000000	          0.00999999	          0.07963134	          0.01227861	          0.12533582	          0.01227861	          0.01227861	          0.53844003	
          0.72460224	         -2.72238244	          3.19013243	         -6.40443406	          0.66317800	          0.94127729	          0.01091091	        -11.95509563	         -5.20608263	        -11.45437153	        -15.08008093	          5.94005457	         35.43860165	         23.14233955	          1.07885476	        -12.38416930	         -8.67333751	         -2.73357328	          0.15753615	         -4.48134097	         -2.79081550	          8.32794700	          0.14287049	          0.00999999	          0.00999999	          0.04495492	          0.00999999	          0.00999999	          0.11646853	          0.00999999	          0.15913082	          0.01507644	          0.00999999	          0.11833653	          0.25878437	          0.00999999	          0.12229618	          0.12057985	          0.00999999	          0.06792158	          0.14087527	          0.05641731	          0.00999999	          0.03288664	          0.06485364	          0.00999999	          0.13588175	          0.00999999	          0.00999999	          0.55746579	
          0.73827398	         -2.76640240	          3.17960905	         -6.20930717	          0.67915504	          0.94111403	          0.00931825	        -11.82578343	         -5.55206303	        -11.98892737	        -16.91647526	          4.50737955	         37.13855027	         22.43211370	          1.24490450	        -12.56743867	         -9.09863364	         -2.58574150	          0.15380459	         -4.11436260	         -3.22746815	          8.58417968	          0.18700337	          0.00999999	          0.00999999	          0.03661235	          0.04703184	          0.05709443	          0.09485472	          0.00999999	          0.12959989	          0.01227861	          0.00999999	          0.09637606	          0.21137133	          0.00999999	          0.11729088	          0.09820307	          0.00999999	          0.10532314	          0.11473214	          0.05990553	          0.00999999	          0.06335530	          0.05281833	          0.00999999	          0.15809274	          0.00999999	          0.00999999	          0.52027809	
          0.75194572	         -2.80356163	          3.18529288	         -5.99403604	          0.69478508	          0.94184633	          0.00761042	        -11.32828167	         -5.99503088	        -12.51157009	        -19.31796987	          2.76459534	         38.71623123	         21.73678106	          1.44424583	        -12.64680975	         -9.60572957	         -1.91350356	          0.26796649	         -3.79054574	         -3.67507632	          8.80189839	          0.20240563	          0.00999999	          0.00999999	          0.02981796	          0.14116557	          0.08913626	          0.09367202	          0.00999999	          0.10554920	          0.00999999	          0.00999999	          0.07849093	          0.17214578	          0.00999999	          0.11302415	          0.07997889	          0.00999999	          0.11918659	          0.09344056	          0.06573040	          0.00999999	          0.08852137	          0.04301649	          0.00999999	          0.17069885	          0.00999999	          0.00999999	          0.45430980	
          0.76561746	         -2.83647849	          3.16281469	         -5.76138262	          0.70996571	          0.94348857	          0.00583538	        -10.44943668	         -6.49201368	        -13.04481903	        -22.27655988	          0.72934812	         39.89258410	         20.99065581	          1.64229129	        -12.60909446	        -10.00851932	         -1.06971149	          0.51751715	         -3.51816944	         -4.08245721	          8.98042907	          0.19550258	          0.00999999	          0.00999999	          0.02428445	          0.18844854	          0.13187934	          0.11042774	          0.00999999	          0.08596176	          0.00999999	          0.00999999	          0.06392486	          0.14019958	          0.00999999	          0.10682178	          0.06513669	          0.00999999	          0.12234196	          0.07610019	          0.07199429	          0.00999999	          0.07450781	          0.03503364	          0.00999999	          0.16503349	          0.00999999	          0.00999999	          0.38928025	
          0.77928920	         -2.86595579	          3.06768953	         -5.51353090	          0.72465152	          0.94584520	          0.00403927	         -9.20635260	         -7.00608710	        -13.62800017	        -25.77912532	         -1.37490855	         40.11590986	         20.15849621	          1.78987821	        -12.49855245	        -10.19716511	         -0.32779890	          0.86266564	         -3.30529805	         -4.40174643	          9.11763632	          0.18511537	          0.00999999	          0.00999999	          0.01977782	          0.22772087	          0.12707686	          0.08993496	          0.00999999	          0.07000928	          0.00999999	          0.00999999	          0.05206191	          0.11418184	          0.00999999	          0.10373893	          0.05304886	          0.00999999	          0.11372078	          0.06197779	          0.07873317	          0.00999999	          0.07402942	          0.02853222	          0.00999999	          0.15990544	          0.00999999	          0.00999999	          0.34461377	
          0.79296094	         -2.89094500	          2.86866782	         -5.24924835	          0.73886185	          0.94868234	          0.00224812	         -7.64486969	         -7.51527602	        -14.23744828	        -29.74524089	         -3.51839003	         39.23175432	         19.21819039	          1.85244157	        -12.34021308	        -10.12433645	          0.22251564	          1.24420545	         -3.15469771	         -4.59938677	          9.20824382	          0.17818324	          0.00999999	          0.00999999	          0.01610753	          0.25156042	          0.11169298	          0.08816332	          0.00999999	          0.06229850	          0.00999999	          0.00999999	          0.04240045	          0.09299238	          0.00999999	          0.08448743	          0.04320424	          0.00999999	          0.09543595	          0.05047617	          0.08341817	          0.00999999	          0.07369062	          0.02323731	          0.00999999	          0.15513876	          0.00999999	          0.00999999	          0.31714399	
          0.80663268	         -2.90951557	          2.55425563	         -4.96683102	          0.75261115	          0.95178458	          0.00046788	         -5.82762082	         -8.00231954	        -14.81286264	        -33.99567105	         -5.86642722	         37.45154090	         18.17716121	          1.81324515	        -12.13609267	         -9.81565983	          0.61817029	          1.62762265	         -3.07037784	         -4.66116901	          9.24986343	          0.17614938	          0.00999999	          0.00999999	          0.01311835	          0.26216496	          0.11424142	          0.10848900	          0.00999999	          0.05073737	          0.00999999	          0.00999999	          0.03453192	          0.07573518	          0.00999999	          0.06880855	          0.03518655	          0.00999999	          0.08203937	          0.04110898	          0.08625023	          0.00999999	          0.07222332	          0.01892502	          0.00999999	          0.14519462	          0.00999999	          0.00999999	          0.29978544	
          0.82030442	         -2.91877099	          2.12900685	         -4.66268402	          0.76591312	          0.95496673	         -0.00129696	         -3.82650151	         -8.44821576	        -15.27690385	        -38.34986425	         -8.41258237	         34.81135548	         17.06916232	          1.66706702	        -11.88114076	         -9.34912624	          0.92572903	          1.99518926	         -3.05478612	         -4.59093448	          9.23928396	          0.18800496	          0.00999999	          0.00999999	          0.01068389	          0.21502720	          0.19651164	          0.09183310	          0.00999999	          0.04132171	          0.00999999	          0.00999999	          0.02812361	          0.06168052	          0.03164951	          0.05603930	          0.02865675	          0.00999999	          0.08122060	          0.03348012	          0.08465871	          0.00999999	          0.05882037	          0.01541298	          0.00999999	          0.11824992	          0.00999999	          0.00999999	          0.28726062	
